<?xml version="1.0" encoding="utf-8"?>
<!-- Generator: Adobe Illustrator 14.0.0, SVG Export Plug-In . SVG Version: 6.00 Build 43363)  -->
<!DOCTYPE svg PUBLIC "-//W3C//DTD SVG 1.1//EN" "http://www.w3.org/Graphics/SVG/1.1/DTD/svg11.dtd">
<svg version="1.1" id="Слой_1" xmlns="http://www.w3.org/2000/svg" xmlns:xlink="http://www.w3.org/1999/xlink" x="0px" y="0px"
	 width="595.28px" height="580.397px" viewBox="0 130.746 595.28 580.397" enable-background="new 0 130.746 595.28 580.397"
	 xml:space="preserve">
<path fill="#330000" d="M105.414,130.746h384.452c58.287,0,105.414,47.126,105.414,105.414v369.569
	c0,58.288-47.127,105.414-105.414,105.414H105.414C47.126,711.144,0,664.018,0,605.729V236.16
	C0,177.873,47.126,130.746,105.414,130.746z"/>
<path fill="#FF9A00" d="M287.719,477.993H195.45L176.6,536.28c-0.496,2.232-2.48,3.721-4.712,3.473h-46.63
	c-2.729,0-3.473-1.488-2.729-4.465l79.867-229.927c0.744-2.48,1.488-5.208,2.48-8.185c0.992-5.209,1.488-10.666,1.488-16.123
	c-0.248-1.24,0.744-2.48,1.984-2.728h64.24c1.984,0,2.977,0.744,3.225,1.984l90.532,255.474c0.744,2.729,0,3.969-2.48,3.969h-51.838
	c-1.736,0.248-3.473-0.992-3.969-2.729L287.719,477.993z M209.836,427.642h63c-1.488-5.208-3.472-11.409-5.705-17.858
	c-2.232-6.697-4.465-13.89-6.697-21.331c-2.48-7.689-4.713-15.13-7.193-22.819c-2.48-7.689-4.712-14.882-6.697-22.075
	c-1.984-6.945-3.72-13.394-5.457-19.347h-0.496c-2.232,10.666-4.961,21.331-8.433,31.997c-3.721,11.906-7.441,24.307-11.41,36.709
	C217.277,405.567,213.557,417.225,209.836,427.642z M421.657,321.732c-8.186,0.248-16.123-2.977-22.076-8.681
	c-5.705-6.201-8.68-14.386-8.432-22.819c-0.248-8.433,2.975-16.37,8.928-22.075c5.953-5.705,13.891-8.681,22.076-8.681
	c9.672,0,17.113,2.976,22.57,8.681c5.457,5.953,8.434,13.89,8.186,22.075c0.248,8.433-2.729,16.618-8.682,22.819
	C438.522,319.003,430.089,322.228,421.657,321.732L421.657,321.732z M393.876,537.024V346.039c0-2.48,0.992-3.473,3.225-3.473
	h49.111c2.232,0,3.225,1.24,3.225,3.473v190.985c0,2.729-0.992,3.969-3.225,3.969h-48.615
	C395.116,540.993,393.876,539.505,393.876,537.024z"/>
</svg>
