<?xml version="1.0" encoding="utf-8"?>
<!-- Generator: Adobe Illustrator 14.0.0, SVG Export Plug-In . SVG Version: 6.00 Build 43363)  -->
<!DOCTYPE svg PUBLIC "-//W3C//DTD SVG 1.1//EN" "http://www.w3.org/Graphics/SVG/1.1/DTD/svg11.dtd">
<svg version="1.1" id="Слой_1" xmlns="http://www.w3.org/2000/svg" xmlns:xlink="http://www.w3.org/1999/xlink" x="0px" y="0px"
	 width="595.28px" height="580.397px" viewBox="0 130.746 595.28 580.397" enable-background="new 0 130.746 595.28 580.397"
	 xml:space="preserve">
<g id="g3013" transform="translate(119,276.3622)">
	<path fill="#D8D8D8" d="M-13.586-145.615h384.452c58.287,0,105.414,47.126,105.414,105.414v369.568
		c0,58.288-47.127,105.413-105.414,105.413H-13.586C-71.874,434.781-119,387.656-119,329.367V-40.201
		C-119-98.488-71.874-145.615-13.586-145.615z"/>
	<polygon id="polygon2989" fill="#264DE4" points="373.217,-15.275 338.26,376.325 181.128,419.888 24.431,376.388 -10.489,-15.275 
			"/>
	<polygon id="polygon2991" fill="#2965F1" points="308.333,351.391 338.205,16.749 181.363,16.749 181.363,386.591 	"/>
	<polygon id="polygon2993" fill="#EBEBEB" points="69.563,162.01 73.868,210.045 181.363,210.045 181.363,162.01 	"/>
	<polygon id="polygon2995" fill="#EBEBEB" points="181.363,64.785 181.198,64.785 60.913,64.785 65.279,112.822 181.363,112.822 	
		"/>
	<polygon id="polygon2997" fill="#EBEBEB" points="181.363,336.742 181.363,286.765 181.154,286.822 127.655,272.375 
		124.235,234.066 98.24,234.066 76.015,234.066 82.745,309.489 181.143,336.805 	"/>
	<polygon id="polygon3005" fill="#FFFFFF" points="240.35,210.045 234.774,272.344 181.198,286.804 181.198,336.781 
		279.675,309.489 280.397,301.372 291.686,174.909 292.855,162.01 301.528,64.785 181.198,64.785 181.198,112.822 248.886,112.822 
		244.516,162.01 181.198,162.01 181.198,210.045 	"/>
</g>
<g>
	<path d="M260.145,232.285c-3.442,1.56-11.601,3.48-21.928,3.48c-29.704,0-45.002-17.519-45.002-40.558
		c0-27.599,20.908-42.838,46.915-42.838c10.072,0,17.721,1.8,21.163,3.6l-4.08,14.399c-3.825-1.56-9.307-3-16.318-3
		c-15.298,0-27.282,8.76-27.282,26.759c0,16.199,10.199,26.399,27.41,26.399c5.992,0,12.366-1.08,16.318-2.64L260.145,232.285z"/>
	<path d="M273.66,215.606c5.1,2.52,13.258,5.04,21.545,5.04c8.924,0,13.641-3.48,13.641-8.76c0-5.04-4.079-7.919-14.405-11.28
		c-14.278-4.8-23.713-12.239-23.713-23.999c0-13.799,12.366-24.239,32.51-24.239c9.814,0,16.828,1.8,21.927,4.08l-4.335,14.64
		c-3.313-1.56-9.562-3.84-17.848-3.84c-8.414,0-12.494,3.72-12.494,7.8c0,5.16,4.717,7.439,15.936,11.399
		c15.171,5.28,22.183,12.72,22.183,24.119c0,13.56-10.965,25.079-34.549,25.079c-9.816,0-19.506-2.52-24.35-5.04L273.66,215.606z"/>
	<path d="M342.503,215.606c5.101,2.52,13.26,5.04,21.545,5.04c8.925,0,13.642-3.48,13.642-8.76c0-5.04-4.079-7.919-14.405-11.28
		c-14.278-4.8-23.713-12.239-23.713-23.999c0-13.799,12.367-24.239,32.51-24.239c9.814,0,16.828,1.8,21.927,4.08l-4.335,14.64
		c-3.313-1.56-9.562-3.84-17.848-3.84c-8.414,0-12.493,3.72-12.493,7.8c0,5.16,4.716,7.439,15.936,11.399
		c15.171,5.28,22.183,12.72,22.183,24.119c0,13.56-10.965,25.079-34.55,25.079c-9.814,0-19.505-2.52-24.349-5.04L342.503,215.606z"
		/>
</g>
</svg>
