<?xml version="1.0" encoding="utf-8"?>
<!-- Generator: Adobe Illustrator 14.0.0, SVG Export Plug-In . SVG Version: 6.00 Build 43363)  -->
<!DOCTYPE svg PUBLIC "-//W3C//DTD SVG 1.1//EN" "http://www.w3.org/Graphics/SVG/1.1/DTD/svg11.dtd">
<svg version="1.1" id="Слой_1" xmlns="http://www.w3.org/2000/svg" xmlns:xlink="http://www.w3.org/1999/xlink" x="0px" y="0px"
	 width="595.28px" height="580.397px" viewBox="0 130.746 595.28 580.397" enable-background="new 0 130.746 595.28 580.397"
	 xml:space="preserve">
<g>
	<path fill="#D8D8D8" d="M105.414,131.746h384.452c58.287,0,105.414,47.126,105.414,105.414v369.568
		c0,58.289-47.127,105.414-105.414,105.414H105.414C47.126,712.143,0,665.018,0,606.729V237.16
		C0,178.873,47.126,131.746,105.414,131.746z"/>
	<polyline fill="#E44D26" points="141.501,653.229 106.328,261.501 493.029,261.501 457.856,653.019 299.359,696.59 	"/>
	<polyline fill="#F16529" points="299.679,663.276 299.679,293.652 457.748,293.652 427.584,627.848 	"/>
	<path fill="#EBEBEB" d="M178.168,341.56h121.511v48.014h-68.43l4.477,49.178h63.954v47.91H191.386 M193.517,510.773h48.604
		l3.411,38.391l54.147,14.382v50.13l-99.341-27.497"/>
	<path fill="#FFFFFF" d="M420.763,341.56H299.464v48.014h116.822 M411.915,438.752H299.464v48.015h59.691l-5.649,62.397
		l-54.042,14.382v49.919l99.128-27.286"/>
</g>
<g>
	<path d="M157.215,152.568v31.079h32.73v-31.079h19.82v80.877h-19.82v-33.839h-32.73v33.839h-19.821v-80.877H157.215z"/>
	<path d="M244.194,167.928h-23.733v-15.359h67.546v15.359h-23.993v65.518h-19.821V167.928z"/>
	<path d="M372.378,202.486c-0.392-9.719-0.783-21.479-0.783-33.238h-0.261c-2.868,10.319-6.52,21.839-9.91,31.318l-10.692,31.559
		h-15.518l-9.389-31.199c-2.869-9.6-5.737-21.119-7.954-31.679h-0.261c-0.392,10.919-0.913,23.399-1.436,33.479l-1.694,30.719
		h-18.386l5.606-80.877h26.472l8.606,26.999c2.868,9.36,5.476,19.439,7.432,28.919h0.522c2.347-9.359,5.346-20.039,8.345-29.039
		l9.259-26.879h26.08l4.694,80.877h-19.3L372.378,202.486z"/>
	<path d="M408.503,152.568h19.82v65.518h34.946v15.359h-54.767V152.568z"/>
</g>
</svg>
