<?xml version="1.0" encoding="utf-8"?>
<!-- Generator: Adobe Illustrator 14.0.0, SVG Export Plug-In . SVG Version: 6.00 Build 43363)  -->
<!DOCTYPE svg PUBLIC "-//W3C//DTD SVG 1.1//EN" "http://www.w3.org/Graphics/SVG/1.1/DTD/svg11.dtd">
<svg version="1.1" id="Слой_1" xmlns="http://www.w3.org/2000/svg" xmlns:xlink="http://www.w3.org/1999/xlink" x="0px" y="0px"
	 width="595.28px" height="580.397px" viewBox="0 130.746 595.28 580.397" enable-background="new 0 130.746 595.28 580.397"
	 xml:space="preserve">
<path fill="#F7DF1E" d="M105.414,131.746h384.452c58.287,0,105.414,47.126,105.414,105.414v369.568
	c0,58.289-47.127,105.414-105.414,105.414H105.414C47.126,712.143,0,665.018,0,606.729V237.16
	C0,178.873,47.126,131.746,105.414,131.746z"/>
<g>
	<path d="M286.843,382.85h60.799v170.397c0,76.799-36.8,103.599-95.599,103.599c-14.4,0-32.8-2.4-44.799-6.4l6.8-49.199
		c8.4,2.8,19.2,4.8,31.2,4.8c25.6,0,41.6-11.6,41.6-53.199V382.85z"/>
	<path d="M396.042,599.646c11.199,6.799,34.399,14.399,52.398,14.399c18.4,0,26-6,26-16c0-10.399-6-15.2-28.399-22.8
		c-40.8-13.6-56.399-35.6-55.999-58.799c0-36.799,31.199-64.398,79.599-64.398c22.8,0,42.799,5.6,54.799,11.6l-10.399,41.999
		c-8.8-4.8-26-11.2-42.399-11.2c-14.8,0-23.2,6-23.2,15.6c0,9.601,7.601,14.4,31.6,22.801c37.2,12.799,52.399,31.999,52.8,60.398
		c0,36.8-28.399,63.6-84.399,63.6c-25.6,0-48.398-6-63.198-14L396.042,599.646z"/>
</g>
</svg>
