<?xml version="1.0" encoding="utf-8"?>
<!-- Generator: Adobe Illustrator 14.0.0, SVG Export Plug-In . SVG Version: 6.00 Build 43363)  -->
<!DOCTYPE svg PUBLIC "-//W3C//DTD SVG 1.1//EN" "http://www.w3.org/Graphics/SVG/1.1/DTD/svg11.dtd">
<svg version="1.1" xmlns="http://www.w3.org/2000/svg" xmlns:xlink="http://www.w3.org/1999/xlink" x="0px" y="0px" width="287.5px"
	 height="102.83px" viewBox="0 0 287.5 102.83" enable-background="new 0 0 287.5 102.83" xml:space="preserve">
<g id="Слой_2_1_">
	<path fill="#505664" d="M287.5,74.483c0,15.654-12.691,28.346-28.348,28.346H28.346c-15.656,0-28.347-12.691-28.347-28.346V28.346
		C-0.001,12.691,12.69,0,28.346,0h230.806C274.808,0,287.5,12.691,287.5,28.346V74.483z"/>
	<image overflow="visible" width="27" height="51" xlink:href="C1F4A4F0.jpg"  transform="matrix(1 0 0 1 -55.7502 -4.4248)">
	</image>
</g>
<g id="Слой_1">
	<g id="Слой_2" display="none">
		<g display="inline">
			<path d="M261.4,49h-29.797c2.42-2.287,3.944-5.551,3.944-9.187V20.517c0-6.913-5.479-12.517-12.239-12.517H64.19
				c-6.76,0-12.24,5.604-12.24,12.517v19.297c0,3.636,1.525,6.9,3.946,9.187H26.101C16.104,49,8,54.793,8,61.94V81.89
				c0,7.146,8.104,12.94,18.102,12.94h235.3c9.994,0,18.1-5.793,18.1-12.94V61.94C279.5,54.793,271.395,49,261.4,49z"/>
			<path fill="#282829" d="M261.4,102.83H26.1C11.465,102.83,0,93.632,0,81.89V61.94C0,50.198,11.465,41,26.101,41h17.885
				c-0.023-0.394-0.035-0.79-0.035-1.187V20.517C43.95,9.204,53.03,0,64.19,0h159.118c11.159,0,20.239,9.204,20.239,20.517v19.297
				c0,0.396-0.012,0.792-0.032,1.187H261.4c14.635,0,26.1,9.198,26.1,20.939v19.951C287.5,93.632,276.035,102.83,261.4,102.83
				L261.4,102.83z M26.101,57C19.835,57,16,60.198,16,61.94V81.89c0,1.742,3.835,4.94,10.102,4.94h235.3
				c6.266,0,10.1-3.198,10.1-4.94V61.94c0-1.742-3.834-4.94-10.1-4.94h-49.918l14.627-13.816c0.537-0.508,1.438-1.621,1.438-3.371
				V20.517c0-2.491-1.901-4.517-4.239-4.517H64.19c-2.338,0-4.24,2.026-4.24,4.517v19.297c0,1.75,0.902,2.863,1.439,3.371L76.018,57
				H26.101L26.101,57z"/>
		</g>
	</g>
	<g id="Слой_1_1_">
		<g>
			<path fill="#FFFFFF" d="M101.511,46.574l-4.032-7.536H71.223l-4.031,7.536h-2.4l16.896-31.152h5.473l16.704,31.152H101.511z
				 M85.959,17.342h-3.12l-10.704,19.92h24.434L85.959,17.342z"/>
			<path fill="#FFFFFF" d="M144.23,46.574h-22.08c-1.856,0-3.576-0.295-5.16-0.888c-1.584-0.592-2.951-1.447-4.102-2.568
				c-1.15-1.12-2.048-2.512-2.688-4.176c-0.642-1.664-0.962-3.583-0.962-5.76V15.47h2.112v17.54c0,1.885,0.278,3.546,0.84,4.984
				c0.56,1.438,1.336,2.652,2.328,3.642c0.99,0.99,2.16,1.741,3.504,2.252c1.344,0.511,2.814,0.767,4.416,0.767h21.792V46.574
				L144.23,46.574z"/>
			<path fill="#FFFFFF" d="M155.63,45.542c-1.584-0.688-2.969-1.647-4.15-2.88c-1.185-1.231-2.12-2.695-2.81-4.392
				c-0.688-1.695-1.031-3.535-1.031-5.52v-4.176c0-1.984,0.385-3.784,1.151-5.4c0.769-1.616,1.776-2.992,3.024-4.128
				c1.248-1.136,2.646-2.016,4.199-2.64c1.552-0.624,3.111-0.937,4.681-0.937h22.367v1.92h-22.176c-1.248,0-2.528,0.255-3.841,0.765
				c-1.313,0.51-2.513,1.244-3.6,2.199c-1.089,0.957-1.978,2.111-2.664,3.466c-0.688,1.354-1.032,2.893-1.032,4.613v0.813h33.216
				v1.92H149.75v1.626c0,1.627,0.296,3.158,0.889,4.592c0.592,1.435,1.407,2.687,2.447,3.755c1.04,1.068,2.265,1.921,3.672,2.559
				c1.408,0.638,2.912,0.957,4.514,0.957h21.791v1.92h-22.464C158.87,46.574,157.214,46.23,155.63,45.542z"/>
			<path fill="#FFFFFF" d="M205.045,29.246l14.207-13.776h2.832l-15.6,15.12l16.801,15.984h-2.928l-15.313-14.64l-15.07,14.64
				h-2.881l16.56-15.984l-15.694-15.12h2.783L205.045,29.246z"/>
		</g>
		<g>
			<path fill="#FFFFFF" d="M40.407,70.46h16.128V87.5H33.207c-1.567,0-3.128-0.319-4.68-0.96c-1.553-0.641-2.952-1.543-4.2-2.712
				c-1.248-1.168-2.256-2.576-3.022-4.224c-0.77-1.648-1.152-3.463-1.152-5.448V69.74c0-1.984,0.376-3.8,1.128-5.448
				c0.751-1.648,1.752-3.057,3-4.225c1.248-1.166,2.655-2.08,4.224-2.735c1.567-0.656,3.137-0.983,4.704-0.983h22.85v1.92h-22.61
				c-1.344,0-2.681,0.279-4.008,0.838c-1.328,0.56-2.528,1.35-3.602,2.371c-1.071,1.022-1.937,2.244-2.592,3.666
				c-0.656,1.422-0.982,2.996-0.982,4.721v4.121c0,1.725,0.327,3.298,0.984,4.72c0.656,1.422,1.515,2.644,2.571,3.666
				c1.058,1.022,2.243,1.813,3.558,2.372c1.313,0.559,2.645,0.838,3.99,0.838h20.959v-13.2h-13.92L40.407,70.46L40.407,70.46z"/>
			<path fill="#FFFFFF" d="M65.847,87.452h-2.112V56.396h24.769c1.792,0,3.319,0.232,4.584,0.695s2.296,1.079,3.097,1.848
				c0.8,0.767,1.384,1.653,1.752,2.662c0.368,1.008,0.552,2.039,0.552,3.092c0,0.801-0.119,1.606-0.359,2.423
				c-0.239,0.815-0.633,1.583-1.176,2.302c-0.545,0.721-1.257,1.352-2.137,1.895c-0.88,0.545-1.96,0.959-3.239,1.248
				c1.215,0.353,2.167,0.914,2.855,1.682c0.688,0.769,1.271,1.744,1.752,2.93l4.176,10.331h-2.353l-3.746-9.456
				c-0.386-0.99-0.833-1.809-1.348-2.447c-0.513-0.641-1.065-1.137-1.658-1.488c-0.593-0.353-1.241-0.601-1.946-0.744
				c-0.705-0.145-1.458-0.217-2.26-0.217H65.847V87.452z M65.847,58.315v12.912h22.26c1.474,0,2.73-0.182,3.771-0.547
				c1.042-0.365,1.893-0.85,2.55-1.453c0.656-0.604,1.13-1.295,1.418-2.072c0.287-0.778,0.433-1.564,0.433-2.359
				c0-0.793-0.136-1.572-0.408-2.334s-0.722-1.453-1.347-2.072s-1.45-1.119-2.477-1.5c-1.025-0.382-2.274-0.572-3.75-0.572h-22.45
				V58.315z"/>
			<path fill="#FFFFFF" d="M105.638,87.5v-1.92h15.071V58.315h-15.071v-1.92h32.688v1.92h-15.504V85.58h15.504v1.92H105.638z"/>
			<path fill="#FFFFFF" d="M146.918,59.036V87.5h-2.111V56.396h2.111l31.488,28.416V56.396h2.111V87.5h-2.204L146.918,59.036z"/>
			<path fill="#FFFFFF" d="M190.358,56.396V70.46h19.487c1.278,0,2.377-0.175,3.286-0.525c0.912-0.352,1.722-1.133,2.427-2.345
				l6.383-11.29h2.352l-6.672,11.887c-0.447,0.768-0.936,1.455-1.463,2.062c-0.529,0.608-1.256,1.007-2.184,1.198v0.048
				c1.118,0.159,2.008,0.504,2.664,1.032c0.653,0.529,1.237,1.273,1.752,2.235l6.862,12.738h-2.352l-6.432-11.903
				c-0.289-0.576-0.625-1.063-1.011-1.465c-0.383-0.398-0.848-0.729-1.391-0.984c-0.545-0.256-1.187-0.447-1.92-0.575
				c-0.736-0.128-1.633-0.192-2.689-0.192h-19.103V87.5h-2.112V56.396H190.358z"/>
			<path fill="#FFFFFF" d="M243.492,87.5c-1.568,0-3.127-0.319-4.68-0.96c-1.554-0.641-2.951-1.543-4.199-2.712
				c-1.248-1.168-2.256-2.576-3.025-4.224c-0.768-1.648-1.149-3.463-1.149-5.448V69.74c0-1.984,0.383-3.8,1.149-5.448
				c0.771-1.648,1.777-3.057,3.025-4.225c1.248-1.166,2.654-2.08,4.223-2.735c1.568-0.656,3.138-0.983,4.705-0.983h10.656
				c1.566,0,3.135,0.327,4.703,0.983c1.568,0.655,2.977,1.567,4.225,2.735s2.265,2.576,3.047,4.225
				c0.785,1.648,1.179,3.464,1.179,5.448v4.368c0,1.983-0.386,3.8-1.152,5.447c-0.77,1.648-1.777,3.064-3.025,4.248
				c-1.247,1.184-2.655,2.096-4.223,2.736c-1.568,0.641-3.137,0.96-4.705,0.96H243.492z M265.141,69.864
				c0-1.725-0.328-3.299-0.986-4.721c-0.656-1.42-1.514-2.643-2.57-3.666c-1.059-1.021-2.252-1.813-3.582-2.371
				c-1.33-0.56-2.684-0.838-4.063-0.838h-10.19c-1.348,0-2.686,0.279-4.016,0.838c-1.33,0.56-2.531,1.35-3.604,2.371
				c-1.073,1.022-1.938,2.244-2.598,3.666c-0.656,1.422-0.984,2.996-0.984,4.721v4.121c0,1.725,0.328,3.298,0.984,4.72
				c0.658,1.422,1.516,2.644,2.572,3.666c1.059,1.022,2.244,1.813,3.559,2.372c1.313,0.559,2.644,0.838,3.988,0.838h10.385
				c1.344,0,2.676-0.279,3.988-0.838c1.313-0.559,2.5-1.35,3.559-2.372c1.058-1.022,1.914-2.244,2.57-3.666
				c0.658-1.421,0.986-2.995,0.986-4.72v-4.121H265.141z"/>
		</g>
	</g>
	<g id="Слой_1_2_" display="none">
		<g display="inline">
			<path fill="#FFFFFF" d="M103.567,46.528l-4.032-7.536H73.279l-4.031,7.536h-2.4l16.896-31.152h5.473l16.704,31.152H103.567z
				 M88.014,17.295h-3.12L74.19,37.216h24.434L88.014,17.295z"/>
			<path fill="#FFFFFF" d="M146.285,46.528h-22.08c-1.856,0-3.576-0.295-5.16-0.888c-1.584-0.592-2.951-1.447-4.102-2.568
				c-1.15-1.12-2.048-2.512-2.688-4.176c-0.642-1.664-0.962-3.583-0.962-5.76V15.423h2.112v17.54c0,1.885,0.278,3.546,0.84,4.984
				c0.56,1.438,1.336,2.652,2.328,3.642c0.99,0.99,2.16,1.741,3.504,2.252c1.344,0.511,2.814,0.767,4.416,0.767h21.792V46.528
				L146.285,46.528z"/>
			<path fill="#FFFFFF" d="M157.685,45.496c-1.584-0.688-2.969-1.647-4.15-2.88c-1.186-1.231-2.121-2.695-2.811-4.392
				c-0.688-1.695-1.031-3.535-1.031-5.52v-4.176c0-1.984,0.385-3.784,1.152-5.4c0.768-1.616,1.775-2.992,3.023-4.128
				c1.248-1.136,2.646-2.016,4.199-2.64c1.553-0.624,3.111-0.937,4.682-0.937h22.367v1.92h-22.176c-1.248,0-2.529,0.255-3.842,0.765
				c-1.313,0.51-2.512,1.244-3.6,2.199c-1.088,0.957-1.977,2.111-2.664,3.466c-0.688,1.354-1.031,2.893-1.031,4.613V29.2h33.215
				v1.92h-33.215v1.626c0,1.627,0.297,3.158,0.889,4.592c0.592,1.435,1.408,2.687,2.447,3.755c1.041,1.068,2.266,1.921,3.672,2.559
				c1.408,0.638,2.912,0.957,4.514,0.957h21.791v1.92h-22.463C160.926,46.528,159.269,46.184,157.685,45.496z"/>
			<path fill="#FFFFFF" d="M207.099,29.2l14.207-13.776h2.832l-15.6,15.12l16.801,15.984h-2.928l-15.313-14.64l-15.07,14.64h-2.881
				l16.559-15.984l-15.693-15.12h2.783L207.099,29.2z"/>
		</g>
		<g display="inline">
			<path fill="#FFFFFF" d="M42.462,70.413H58.59v17.041H35.262c-1.567,0-3.128-0.32-4.68-0.961c-1.553-0.641-2.952-1.543-4.2-2.711
				s-2.256-2.576-3.022-4.225c-0.77-1.648-1.152-3.463-1.152-5.447v-4.416c0-1.984,0.376-3.801,1.128-5.449
				c0.751-1.648,1.752-3.057,3-4.225c1.248-1.166,2.655-2.08,4.224-2.734c1.567-0.656,3.137-0.984,4.704-0.984h22.85v1.92h-22.61
				c-1.344,0-2.681,0.279-4.008,0.838c-1.328,0.561-2.528,1.35-3.602,2.371c-1.071,1.023-1.937,2.244-2.592,3.666
				c-0.656,1.422-0.982,2.996-0.982,4.721v4.121c0,1.725,0.327,3.299,0.984,4.721c0.656,1.422,1.515,2.643,2.571,3.666
				c1.058,1.021,2.243,1.813,3.558,2.371c1.313,0.559,2.645,0.838,3.99,0.838h20.959V72.335h-13.92L42.462,70.413L42.462,70.413z"/>
			<path fill="#FFFFFF" d="M67.903,87.405H65.79V56.349h24.769c1.792,0,3.319,0.232,4.584,0.695s2.296,1.08,3.097,1.848
				c0.8,0.768,1.384,1.654,1.752,2.662s0.552,2.039,0.552,3.092c0,0.801-0.119,1.607-0.359,2.424
				c-0.239,0.814-0.633,1.582-1.176,2.301c-0.545,0.721-1.257,1.352-2.137,1.895c-0.88,0.545-1.96,0.959-3.239,1.248
				c1.215,0.354,2.167,0.914,2.855,1.682c0.688,0.77,1.271,1.744,1.752,2.93l4.176,10.332h-2.353l-3.746-9.457
				c-0.386-0.99-0.833-1.809-1.348-2.447c-0.513-0.641-1.065-1.137-1.658-1.488s-1.241-0.6-1.946-0.744s-1.458-0.217-2.26-0.217
				H67.903V87.405z M67.903,58.269v12.912h22.26c1.474,0,2.73-0.182,3.771-0.547c1.042-0.365,1.893-0.85,2.55-1.453
				c0.656-0.604,1.13-1.295,1.418-2.072c0.287-0.777,0.433-1.564,0.433-2.359c0-0.793-0.136-1.572-0.408-2.334
				s-0.722-1.453-1.347-2.072s-1.45-1.119-2.477-1.5c-1.025-0.381-2.274-0.572-3.75-0.572h-22.45V58.269z"/>
			<path fill="#FFFFFF" d="M107.694,87.454v-1.92h15.071V58.269h-15.071v-1.92h32.688v1.92h-15.504v27.266h15.504v1.92H107.694z"/>
			<path fill="#FFFFFF" d="M148.972,58.989v28.465h-2.111V56.349h2.111l31.488,28.416V56.349h2.111v31.105h-2.203L148.972,58.989z"
				/>
			<path fill="#FFFFFF" d="M192.414,56.349v14.064H211.9c1.279,0,2.377-0.174,3.287-0.525c0.912-0.352,1.721-1.133,2.426-2.344
				l6.383-11.291h2.352l-6.672,11.887c-0.447,0.768-0.936,1.455-1.463,2.063c-0.529,0.607-1.256,1.006-2.184,1.197v0.049
				c1.119,0.158,2.008,0.504,2.664,1.031c0.654,0.529,1.238,1.273,1.752,2.236l6.863,12.738h-2.352l-6.432-11.904
				c-0.289-0.576-0.625-1.063-1.012-1.465c-0.383-0.398-0.848-0.729-1.391-0.984c-0.545-0.256-1.186-0.447-1.92-0.574
				c-0.736-0.129-1.633-0.193-2.689-0.193h-19.102v15.121h-2.113V56.349H192.414z"/>
			<path fill="#FFFFFF" d="M245.547,87.454c-1.568,0-3.127-0.32-4.68-0.961s-2.951-1.543-4.199-2.711s-2.256-2.576-3.025-4.225
				c-0.768-1.648-1.148-3.463-1.148-5.447v-4.416c0-1.984,0.383-3.801,1.148-5.449c0.771-1.648,1.777-3.057,3.025-4.225
				c1.248-1.166,2.654-2.08,4.223-2.734c1.568-0.656,3.139-0.984,4.705-0.984h10.656c1.566,0,3.135,0.328,4.703,0.984
				c1.568,0.654,2.977,1.566,4.225,2.734s2.266,2.576,3.047,4.225c0.785,1.648,1.18,3.465,1.18,5.449v4.367
				c0,1.984-0.387,3.801-1.152,5.447c-0.77,1.648-1.777,3.064-3.025,4.248s-2.656,2.096-4.223,2.736
				c-1.568,0.641-3.137,0.961-4.705,0.961H245.547z M267.197,69.817c0-1.725-0.328-3.299-0.986-4.721
				c-0.656-1.42-1.514-2.643-2.57-3.666c-1.059-1.021-2.252-1.813-3.582-2.371s-2.684-0.838-4.063-0.838h-10.191
				c-1.348,0-2.686,0.279-4.016,0.838c-1.33,0.561-2.531,1.35-3.604,2.371c-1.074,1.023-1.939,2.244-2.598,3.666
				c-0.656,1.422-0.984,2.996-0.984,4.721v4.121c0,1.725,0.328,3.299,0.984,4.721c0.658,1.422,1.516,2.643,2.572,3.666
				c1.059,1.021,2.244,1.813,3.559,2.371c1.313,0.559,2.643,0.838,3.988,0.838h10.385c1.344,0,2.676-0.279,3.988-0.838
				s2.5-1.35,3.559-2.371c1.057-1.023,1.914-2.244,2.57-3.666c0.658-1.422,0.986-2.996,0.986-4.721v-4.121H267.197z"/>
		</g>
	</g>
</g>
</svg>
