<?xml version="1.0" encoding="utf-8"?>
<!-- Generator: Adobe Illustrator 14.0.0, SVG Export Plug-In . SVG Version: 6.00 Build 43363)  -->
<!DOCTYPE svg PUBLIC "-//W3C//DTD SVG 1.1//EN" "http://www.w3.org/Graphics/SVG/1.1/DTD/svg11.dtd">
<svg version="1.1" id="Слой_1" xmlns="http://www.w3.org/2000/svg" xmlns:xlink="http://www.w3.org/1999/xlink" x="0px" y="0px"
	 width="595.28px" height="580.397px" viewBox="0 130.746 595.28 580.397" enable-background="new 0 130.746 595.28 580.397"
	 xml:space="preserve">
<g id="g3013" transform="translate(119,276.3622)">
	<path fill="#273B59" d="M-13.586-145.615h384.452c58.287,0,105.414,47.126,105.414,105.414v369.568
		c0,58.288-47.127,105.413-105.414,105.413H-13.586C-71.874,434.781-119,387.656-119,329.367V-40.201
		C-119-98.488-71.874-145.615-13.586-145.615z"/>
</g>
<g>
	<circle fill="#00D8FF" cx="297.647" cy="422.57" r="49.942"/>
	<path fill="#00D8FF" d="M51.27,469.252c17.399,14.9,41.955,28.023,71.016,37.957c6.48,2.213,13.377,4.305,20.568,6.236
		l-0.012,0.047l0.04,0.01c-2.311,8.752-4.257,17.285-5.804,25.438c-5.479,28.887-6.299,55.266-2.373,76.285
		c4.047,21.668,13.005,37.057,25.908,44.5c6.581,3.795,14.525,5.719,23.613,5.719c27.564,0,63.548-17.641,98.723-48.395
		c5.191-4.541,10.488-9.512,15.793-14.82l0.033,0.033l0.027-0.029c6.197,6.117,12.383,11.836,18.439,17.049
		c16.943,14.578,33.707,25.951,49.826,33.809c16.047,7.82,30.688,11.785,43.514,11.785c8.811,0,16.568-1.904,23.059-5.658
		c13.316-7.705,22.604-23.893,26.857-46.814c4.182-22.525,3.236-50.357-2.729-80.482c-1.244-6.287-2.766-12.846-4.539-19.559
		l0.045-0.012l-0.012-0.043c5.615-1.555,11.053-3.201,16.227-4.916c30.141-9.98,55.539-23.051,73.451-37.799
		c18.406-15.152,28.135-31.418,28.135-47.037c0-14.968-9.18-30.541-26.545-45.029c-16.705-13.94-40.469-26.449-68.721-36.173
		c-7.396-2.545-15.242-4.951-23.389-7.174l0.012-0.039l-0.043-0.012c1.59-6.069,2.99-12.025,4.174-17.769
		c6.41-31.104,7.775-59.641,3.949-82.528c-3.932-23.516-13.162-40.069-26.691-47.871c-6.314-3.642-13.871-5.488-22.457-5.488
		c-13.027,0-28.01,4.166-44.529,12.38c-16.492,8.201-33.633,19.999-50.947,35.064c-5.881,5.117-11.865,10.689-17.839,16.61
		l-0.029-0.029l-0.03,0.031c-4.705-4.67-9.4-9.089-14.01-13.183c-18.313-16.26-36.513-28.992-54.095-37.843
		c-8.556-4.307-16.863-7.617-24.689-9.837c-7.958-2.257-15.47-3.401-22.328-3.401c-8.898,0-16.708,1.909-23.21,5.674
		c-12.955,7.494-21.832,23.237-25.672,45.526c-3.692,21.443-2.612,48.275,3.123,77.6c1.564,7.991,3.5,16.319,5.771,24.831
		l-0.04,0.011l0.012,0.039c-9.037,2.431-17.681,5.078-25.767,7.895c-27.76,9.675-51.023,22.137-67.277,36.041
		c-16.751,14.329-25.605,29.777-25.605,44.675C24.204,437.941,33.563,454.088,51.27,469.252z M57.319,386.658
		c15.172-12.977,37.153-24.703,63.569-33.909c7.872-2.742,16.306-5.322,25.132-7.692c7.437,25.191,17.541,51.498,30.084,78.32
		c-12.594,27.117-22.707,53.637-30.109,78.949c-6.994-1.877-13.693-3.904-19.973-6.051c-27.689-9.463-50.938-21.842-67.237-35.799
		c-14.851-12.717-23.028-26.184-23.028-37.922C35.756,411.137,43.213,398.725,57.319,386.658z M145.374,233.426
		c3.238-18.802,10.179-31.765,20.072-37.488c4.722-2.734,10.584-4.121,17.423-4.121c11.761,0,26.222,4.151,41.823,12.004
		c16.688,8.401,34.053,20.567,51.618,36.164c4.474,3.972,9.037,8.27,13.612,12.815c-18.158,18.975-35.957,40.844-52.993,65.111
		c-29.537,2.608-57.362,7.034-82.841,13.173c-2.223-8.318-4.116-16.45-5.641-24.238
		C142.979,278.887,141.916,253.498,145.374,233.426z M371.979,203.196c14.699-7.309,28.318-11.172,39.387-11.172
		c6.533,0,12.148,1.327,16.688,3.943c10.287,5.934,17.771,20.057,21.066,39.768c3.594,21.497,2.256,48.568-3.869,78.291
		c-1.148,5.569-2.51,11.352-4.057,17.25c-25.473-6.231-53.264-10.714-82.744-13.344c-17.121-24.679-34.707-46.549-52.355-65.114
		c5.826-5.777,11.656-11.208,17.379-16.186C340.048,222.21,356.368,210.96,371.979,203.196z M559.522,422.555
		c0,11.879-8.496,25.416-23.924,38.119c-16.822,13.85-40.938,26.211-69.738,35.748c-5.023,1.664-10.309,3.264-15.77,4.777
		c-7.23-24.305-17.576-50.582-30.801-78.24c12.736-27.1,22.811-53.184,29.994-77.662c7.939,2.165,15.576,4.506,22.768,6.98
		c26.936,9.272,49.441,21.07,65.078,34.12C551.78,398.62,559.522,411.123,559.522,422.555z M449.142,610.295
		c-3.568,19.221-11.129,33.045-21.287,38.922c-4.707,2.725-10.52,4.105-17.271,4.105c-22.916,0-54.191-15.598-85.805-42.797
		c-5.895-5.072-11.922-10.652-17.969-16.627c17.32-18.418,34.779-40.438,51.979-65.563c30.254-2.553,58.215-6.953,83.252-13.102
		c1.721,6.506,3.195,12.852,4.398,18.93C452.122,562.867,453.056,589.193,449.142,610.295z M184.226,653.891
		c-7.035,0-13.036-1.404-17.839-4.174c-9.89-5.705-16.918-18.365-20.324-36.613c-3.665-19.621-2.847-44.523,2.366-72.012
		c1.507-7.939,3.409-16.264,5.669-24.814c24.703,5.84,52.625,9.98,83.135,12.332c17.238,24.414,35.185,46.369,53.429,65.361
		c-5.153,5.16-10.29,9.984-15.317,14.381C242.733,636.865,208.669,653.889,184.226,653.891z M343.501,316.769
		c-15.107-1.003-30.479-1.51-45.854-1.51c-15.28,0-30.604,0.502-45.704,1.495c14.909-20.573,30.356-39.25,46.058-55.685
		C313.284,277.179,328.542,295.857,343.501,316.769z M298.7,585.662c-15.82-16.5-31.426-35.299-46.54-56.061
		c14.771,0.834,30.019,1.254,45.486,1.254c15.633,0,31.161-0.48,46.319-1.43C328.927,550.764,313.745,569.625,298.7,585.662z
		 M297.647,326.812c18.286,0,36.565,0.731,54.379,2.17c9.785,14.35,19.316,29.518,28.352,45.128
		c9.504,16.418,18.277,32.854,26.102,48.89c-7.68,15.996-16.234,32.191-25.455,48.178c-9.271,16.08-18.914,31.57-28.684,46.086
		c-17.771,1.352-36.156,2.037-54.694,2.037c-18.512,0-36.693-0.609-54.094-1.814c-10.43-15.035-20.439-30.811-29.773-46.936
		c-8.975-15.506-17.346-31.371-24.904-47.191c7.713-16.259,16.249-32.521,25.396-48.375c9.132-15.837,18.895-31.304,29.04-46.017
		C261.172,327.538,279.438,326.812,297.647,326.812z M367.06,515.979c8.158-12.457,16.195-25.541,23.973-39.029
		c7.766-13.463,15.068-27.072,21.785-40.6c11.021,23.887,19.771,46.611,26.088,67.76
		C417.114,509.438,393.024,513.416,367.06,515.979z M412.731,409.599c-6.859-13.615-14.354-27.454-22.354-41.276
		c-7.541-13.027-15.422-25.755-23.51-37.971c25.264,2.633,49.146,6.677,71.225,12.059
		C431.831,363.668,423.327,386.198,412.731,409.599z M228.421,330.33c-8.397,12.561-16.496,25.596-24.157,38.883
		c-7.688,13.325-14.955,26.936-21.675,40.596c-10.401-23.141-18.908-45.807-25.364-67.598
		C179.28,336.92,203.155,332.936,228.421,330.33z M182.627,436.926c6.559,13.234,13.648,26.445,21.152,39.412
		c7.897,13.643,16.27,27.041,24.971,39.967c-26.088-2.373-50.08-6.115-71.543-11.162
		C163.644,483.215,172.168,460.34,182.627,436.926z"/>
</g>
</svg>
